<svg xmlns="http://www.w3.org/2000/svg" width="800" height="500" viewBox="0 0 800 500">
  <defs>
    <linearGradient id="bg" x1="0" x2="1" y1="0" y2="1">
      <stop offset="0%" stop-color="#0b0d17"/>
      <stop offset="100%" stop-color="#131725"/>
    </linearGradient>
    <linearGradient id="panel" x1="0" x2="0" y1="0" y2="1">
      <stop offset="0%" stop-color="#111827"/>
      <stop offset="100%" stop-color="#161d2d"/>
    </linearGradient>
    <linearGradient id="button" x1="0" x2="1" y1="0" y2="0">
      <stop offset="0%" stop-color="#00f2fe"/>
      <stop offset="100%" stop-color="#7b61ff"/>
    </linearGradient>
  </defs>
  <rect width="800" height="500" rx="40" fill="url(#bg)"/>
  <g opacity="0.18">
    <circle cx="150" cy="120" r="90" fill="#00f2fe"/>
    <circle cx="640" cy="90" r="70" fill="#7b61ff"/>
    <circle cx="520" cy="380" r="100" fill="#00f2fe"/>
  </g>
  <rect x="120" y="80" width="560" height="340" rx="30" fill="url(#panel)" stroke="#2b2e46" stroke-width="2"/>
  <text x="240" y="150" fill="#ffffff" font-family="Poppins, sans-serif" font-size="28" font-weight="700">Task Tracker Login</text>
  <rect x="160" y="190" width="480" height="70" rx="20" fill="#101424" stroke="#2a2f4d" stroke-width="1"/>
  <text x="190" y="227" fill="#94a3b8" font-family="Poppins, sans-serif" font-size="16">Email</text>
  <rect x="160" y="225" width="480" height="40" rx="12" fill="#0c1120"/>
  <circle cx="178" cy="245" r="3" fill="#4b5563"/>
  <rect x="160" y="280" width="480" height="70" rx="20" fill="#101424" stroke="#2a2f4d" stroke-width="1"/>
  <text x="190" y="317" fill="#94a3b8" font-family="Poppins, sans-serif" font-size="16">Password</text>
  <rect x="160" y="315" width="480" height="40" rx="12" fill="#0c1120"/>
  <circle cx="178" cy="335" r="3" fill="#4b5563"/>
  <rect x="220" y="375" width="240" height="50" rx="25" fill="url(#button)"/>
  <text x="280" y="407" fill="#0b0d17" font-family="Poppins, sans-serif" font-size="18" font-weight="700">Sign In</text>
  <text x="160" y="450" fill="#94a3b8" font-family="Poppins, sans-serif" font-size="14">Forgot password? • Remember me</text>
  <rect x="420" y="190" width="180" height="220" rx="24" fill="#0f1323"/>
  <text x="435" y="230" fill="#ffffff" font-family="Poppins, sans-serif" font-size="18" font-weight="700">Features</text>
  <circle cx="445" cy="260" r="6" fill="#00f2fe"/>
  <text x="465" y="266" fill="#94a3b8" font-family="Poppins, sans-serif" font-size="14">Task tracking</text>
  <circle cx="445" cy="295" r="6" fill="#7b61ff"/>
  <text x="465" y="301" fill="#94a3b8" font-family="Poppins, sans-serif" font-size="14">User dashboard</text>
  <circle cx="445" cy="330" r="6" fill="#00f2fe"/>
  <text x="465" y="336" fill="#94a3b8" font-family="Poppins, sans-serif" font-size="14">Responsive UI</text>
</svg>
