<svg xmlns="http://www.w3.org/2000/svg" width="800" height="500" viewBox="0 0 800 500">
  <defs>
    <linearGradient id="bg" x1="0" x2="1" y1="0" y2="1">
      <stop offset="0%" stop-color="#1e1e2d"/>
      <stop offset="100%" stop-color="#151522"/>
    </linearGradient>
    <linearGradient id="highlight" x1="0" x2="1" y1="0" y2="1">
      <stop offset="0%" stop-color="#00f2fe" stop-opacity="0.8"/>
      <stop offset="100%" stop-color="#7b61ff" stop-opacity="0.3"/>
    </linearGradient>
  </defs>
  <rect width="800" height="500" rx="40" fill="url(#bg)"/>
  <rect x="40" y="40" width="720" height="100" rx="20" fill="#0f0f18"/>
  <rect x="60" y="62" width="200" height="18" rx="9" fill="#27283f"/>
  <rect x="280" y="62" width="120" height="18" rx="9" fill="#27283f"/>
  <rect x="420" y="62" width="160" height="18" rx="9" fill="#27283f"/>
  <rect x="40" y="160" width="720" height="260" rx="20" fill="#12121d"/>
  <rect x="60" y="180" width="180" height="24" rx="12" fill="#27283f"/>
  <rect x="60" y="220" width="620" height="12" rx="6" fill="#27283f"/>
  <rect x="60" y="250" width="520" height="12" rx="6" fill="#27283f"/>
  <rect x="60" y="280" width="580" height="12" rx="6" fill="#27283f"/>
  <rect x="60" y="310" width="400" height="12" rx="6" fill="#27283f"/>
  <rect x="60" y="340" width="580" height="12" rx="6" fill="#27283f"/>
  <rect x="60" y="380" width="240" height="60" rx="20" fill="url(#highlight)" opacity="0.8"/>
  <circle cx="130" cy="210" r="18" fill="#3b4159"/>
  <circle cx="170" cy="210" r="18" fill="#3b4159"/>
  <circle cx="210" cy="210" r="18" fill="#3b4159"/>
</svg>
