<svg xmlns="http://www.w3.org/2000/svg" width="800" height="500" viewBox="0 0 800 500">
  <defs>
    <linearGradient id="bg" x1="0" x2="1" y1="0" y2="1">
      <stop offset="0%" stop-color="#f7fbff"/>
      <stop offset="100%" stop-color="#eef4ff"/>
    </linearGradient>
    <linearGradient id="card" x1="0" x2="0" y1="0" y2="1">
      <stop offset="0%" stop-color="#ffffff"/>
      <stop offset="100%" stop-color="#f0f4ff"/>
    </linearGradient>
    <linearGradient id="button" x1="0" x2="1" y1="0" y2="0">
      <stop offset="0%" stop-color="#246bff"/>
      <stop offset="100%" stop-color="#4f8cff"/>
    </linearGradient>
    <linearGradient id="panel" x1="0" x2="1" y1="0" y2="0">
      <stop offset="0%" stop-color="#dce4ff"/>
      <stop offset="100%" stop-color="#c3d4ff"/>
    </linearGradient>
  </defs>
  <rect width="800" height="500" rx="40" fill="url(#bg)"/>
  <circle cx="180" cy="130" r="100" fill="#d5e4ff" opacity="0.8"/>
  <circle cx="620" cy="100" r="70" fill="#d4eaff" opacity="0.7"/>
  <circle cx="620" cy="390" r="90" fill="#c1d8ff" opacity="0.5"/>
  <rect x="70" y="80" width="330" height="340" rx="30" fill="#ffffff" stroke="#d8e2ff" stroke-width="2"/>
  <rect x="430" y="80" width="300" height="340" rx="30" fill="url(#card)" stroke="#d8e2ff" stroke-width="2"/>
  <rect x="110" y="110" width="250" height="320" rx="24" fill="url(#panel)"/>
  <rect x="130" y="130" width="210" height="36" rx="18" fill="#ffffff"/>
  <rect x="130" y="180" width="160" height="26" rx="13" fill="#ffffff"/>
  <rect x="130" y="220" width="170" height="26" rx="13" fill="#ffffff"/>
  <rect x="130" y="260" width="100" height="22" rx="11" fill="#a4b4ff"/>
  <rect x="130" y="295" width="190" height="18" rx="9" fill="#ffffff"/>
  <rect x="130" y="330" width="190" height="18" rx="9" fill="#ffffff"/>
  <rect x="130" y="365" width="220" height="30" rx="15" fill="#ffffff" opacity="0.9"/>
  <rect x="90" y="220" width="26" height="26" rx="13" fill="#4f8cff"/>
  <rect x="90" y="265" width="26" height="26" rx="13" fill="#726bff"/>
  <rect x="90" y="310" width="26" height="26" rx="13" fill="#24b4ff"/>
  <rect x="510" y="110" width="180" height="40" rx="20" fill="#ffffff"/>
  <text x="530" y="135" fill="#0f172a" font-family="Poppins, sans-serif" font-size="20" font-weight="700">Welcome</text>
  <rect x="470" y="160" width="240" height="50" rx="25" fill="#f8fbff" stroke="#d7e3ff" stroke-width="1.5"/>
  <text x="485" y="190" fill="#475569" font-family="Poppins, sans-serif" font-size="15">Email</text>
  <rect x="470" y="220" width="240" height="50" rx="25" fill="#f8fbff" stroke="#d7e3ff" stroke-width="1.5"/>
  <text x="485" y="250" fill="#475569" font-family="Poppins, sans-serif" font-size="15">Password</text>
  <rect x="470" y="300" width="190" height="50" rx="25" fill="url(#button)"/>
  <text x="515" y="334" fill="#ffffff" font-family="Poppins, sans-serif" font-size="16" font-weight="700">Login</text>
  <text x="470" y="380" fill="#64748b" font-family="Poppins, sans-serif" font-size="14">Don't have an account? <tspan fill="#2563eb">Sign up</tspan></text>
  <rect x="160" y="120" width="220" height="340" rx="30" fill="#eef4ff"/>
  <rect x="175" y="145" width="190" height="255" rx="20" fill="#ffffff"/>
  <rect x="200" y="170" width="145" height="22" rx="11" fill="#e2e8f0"/>
  <rect x="190" y="205" width="170" height="32" rx="16" fill="#f8fafc"/>
  <rect x="190" y="250" width="170" height="32" rx="16" fill="#f8fafc"/>
  <rect x="190" y="295" width="170" height="28" rx="14" fill="#eff6ff"/>
  <rect x="190" y="335" width="170" height="28" rx="14" fill="#eff6ff"/>
  <rect x="190" y="385" width="120" height="32" rx="16" fill="#2563eb"/>
  <circle cx="260" cy="120" r="24" fill="#dbeafe"/>
  <circle cx="240" cy="115" r="8" fill="#93c5fd"/>
  <circle cx="280" cy="115" r="8" fill="#93c5fd"/>
</svg>
